<?xml version="1.0" encoding="UTF-8" standalone="no"?>
<!-- Created with Inkscape (http://www.inkscape.org/) -->

<svg
   xmlns:dc="http://purl.org/dc/elements/1.1/"
   xmlns:cc="http://creativecommons.org/ns#"
   xmlns:rdf="http://www.w3.org/1999/02/22-rdf-syntax-ns#"
   xmlns:svg="http://www.w3.org/2000/svg"
   xmlns="http://www.w3.org/2000/svg"
   xmlns:sodipodi="http://sodipodi.sourceforge.net/DTD/sodipodi-0.dtd"
   xmlns:inkscape="http://www.inkscape.org/namespaces/inkscape"
   width="48"
   height="48"
   viewBox="0 0 12.7 12.7"
   version="1.1"
   id="svg1503"
   inkscape:version="0.92.3 (unknown)"
   sodipodi:docname="instagram.svg">
  <defs
     id="defs1497" />
  <sodipodi:namedview
     id="base"
     pagecolor="#ffffff"
     bordercolor="#666666"
     borderopacity="1.0"
     inkscape:pageopacity="0.0"
     inkscape:pageshadow="2"
     inkscape:zoom="0.98994949"
     inkscape:cx="-261.42857"
     inkscape:cy="75.126778"
     inkscape:document-units="mm"
     inkscape:current-layer="layer1"
     showgrid="false"
     units="px"
     inkscape:window-width="1366"
     inkscape:window-height="703"
     inkscape:window-x="0"
     inkscape:window-y="0"
     inkscape:window-maximized="1" />
  <metadata
     id="metadata1500">
    <rdf:RDF>
      <cc:Work
         rdf:about="">
        <dc:format>image/svg+xml</dc:format>
        <dc:type
           rdf:resource="http://purl.org/dc/dcmitype/StillImage" />
        <dc:title></dc:title>
      </cc:Work>
    </rdf:RDF>
  </metadata>
  <g
     inkscape:label="Layer 1"
     inkscape:groupmode="layer"
     id="layer1"
     transform="translate(0,-284.3)">
    <path
       style="fill:#fffffd;fill-opacity:1;stroke:none;stroke-width:0.14996102;stroke-miterlimit:4;stroke-dasharray:none;stroke-opacity:1"
       d="m 6.4310378,284.6221 c -3.2466108,0 -3.3951038,0.013 -4.0934643,0.35677 -0.8874529,0.4369 -1.52063645,1.27257 -1.75196045,2.31196 -0.1109599,0.49857 -0.1533995,1.89649 -0.1187276,3.91918 0.049119,2.86692 0.082217,3.19705 0.374313,3.74313 0.84455825,1.57894 1.69197915,1.86145 5.58983935,1.86309 1.6058003,5.7e-4 3.2228329,-0.068 3.5934062,-0.15236 1.058572,-0.24104 1.712027,-0.75936 2.193826,-1.74056 l 0.426365,-0.86852 v -3.29395 c 0,-3.67321 -0.07591,-4.08585 -0.925839,-5.02662 -0.902574,-0.99905 -1.440267,-1.11212 -5.2877582,-1.11212 z m 0.1497251,1.04807 c 3.7974211,0 4.0247041,0.0525 4.6645851,1.08171 0.341476,0.54925 0.351211,0.6598 0.351211,3.9341 0,3.88632 -0.06903,4.14487 -1.270325,4.75377 -0.6279522,0.31829 -0.8383984,0.33657 -3.8144838,0.33103 -2.2788648,-0.004 -3.276228,-0.0608 -3.6065668,-0.2047 -0.600488,-0.26156 -1.231002,-1.02556 -1.3434322,-1.62797 -0.049459,-0.26521 -0.068898,-1.90923 -0.043279,-3.65335 0.051949,-3.53472 0.088983,-3.66942 1.1852266,-4.31513 0.4677596,-0.27552 0.7775291,-0.29946 3.8770644,-0.29946 z m 3.2699767,1.13991 c -0.239442,-0.006 -0.4166405,0.0685 -0.5298882,0.22342 -0.259625,0.35505 -0.2471228,0.45589 0.101183,0.80418 0.4518229,0.45184 0.9767226,0.20301 0.9767226,-0.46292 0,-0.45015 -0.04923,-0.51243 -0.4415728,-0.55708 -0.036738,-0.004 -0.07224,-0.007 -0.1064446,-0.008 z m -3.2848908,0.79073 c -0.2355073,5.7e-4 -0.4759077,0.0289 -0.7176287,0.0869 -1.3947669,0.3346 -2.4049617,1.59402 -2.4049617,2.99831 0,2.08794 2.0976881,3.62775 4.0510637,2.97373 1.3284957,-0.44479 2.127672,-1.5679 2.1297816,-2.99304 0.00249,-1.73893 -1.4096993,-3.07083 -3.0582549,-3.06586 z m -0.1400738,1.00071 c 0.8880427,-0.0267 1.827299,0.57965 2.1063883,1.42531 0.5860862,1.77583 -1.2657367,3.34488 -2.9611684,2.50907 -0.7571111,-0.37325 -1.137798,-1.11269 -1.0489541,-2.03738 0.061631,-0.64144 0.1615805,-0.84764 0.6097216,-1.25833 0.2947956,-0.27017 0.7083831,-0.53439 0.9188219,-0.58721 0.1227056,-0.0308 0.2483271,-0.0476 0.3751907,-0.0515 z"
       id="path1305"
       inkscape:connector-curvature="0"
       sodipodi:nodetypes="scccccsccscsscsscccccscccsccscsccsccccccc" />
  </g>
</svg>
