<?xml version="1.0" encoding="UTF-8" standalone="no"?>
<!-- Created with Inkscape (http://www.inkscape.org/) -->

<svg
   xmlns:dc="http://purl.org/dc/elements/1.1/"
   xmlns:cc="http://creativecommons.org/ns#"
   xmlns:rdf="http://www.w3.org/1999/02/22-rdf-syntax-ns#"
   xmlns:svg="http://www.w3.org/2000/svg"
   xmlns="http://www.w3.org/2000/svg"
   xmlns:sodipodi="http://sodipodi.sourceforge.net/DTD/sodipodi-0.dtd"
   xmlns:inkscape="http://www.inkscape.org/namespaces/inkscape"
   width="48"
   height="48"
   viewBox="0 0 12.7 12.7"
   version="1.1"
   id="svg1503"
   inkscape:version="0.92.3 (unknown)"
   sodipodi:docname="viber.svg">
  <defs
     id="defs1497" />
  <sodipodi:namedview
     id="base"
     pagecolor="#ffffff"
     bordercolor="#666666"
     borderopacity="1.0"
     inkscape:pageopacity="0.0"
     inkscape:pageshadow="2"
     inkscape:zoom="0.98994949"
     inkscape:cx="-261.42857"
     inkscape:cy="75.126778"
     inkscape:document-units="mm"
     inkscape:current-layer="layer1"
     showgrid="false"
     units="px"
     inkscape:window-width="1366"
     inkscape:window-height="703"
     inkscape:window-x="0"
     inkscape:window-y="0"
     inkscape:window-maximized="1" />
  <metadata
     id="metadata1500">
    <rdf:RDF>
      <cc:Work
         rdf:about="">
        <dc:format>image/svg+xml</dc:format>
        <dc:type
           rdf:resource="http://purl.org/dc/dcmitype/StillImage" />
        <dc:title></dc:title>
      </cc:Work>
    </rdf:RDF>
  </metadata>
  <g
     inkscape:label="Layer 1"
     inkscape:groupmode="layer"
     id="layer1"
     transform="translate(0,-284.3)">
    <path
       style="fill:#fdfffd;fill-opacity:1;stroke:none;stroke-width:0.14234203;stroke-miterlimit:4;stroke-dasharray:none;stroke-opacity:1"
       d="m 6.8184077,284.88592 c -1.6447343,-0.006 -3.2196486,0.33638 -4.1519616,0.98151 -1.1495119,0.79542 -1.76062438,3.11968 -1.420905,5.40382 0.2671411,1.79611 0.7994563,2.63533 2.1267782,3.35366 0.4349156,0.23537 0.4474492,0.26937 0.4474492,1.21994 0,0.53776 0.046387,1.02426 0.1032587,1.08115 0.056893,0.0569 0.4931846,-0.31626 0.9695674,-0.82912 0.4763898,-0.51285 0.9256556,-0.93371 0.9981588,-0.93515 3.5287825,-0.0697 5.1435746,-0.61958 5.8335096,-1.98688 0.666526,-1.3209 0.793025,-4.01946 0.270635,-5.77354 -0.288965,-0.9703 -1.176938,-1.80024 -2.2638994,-2.11623 -0.9137006,-0.26562 -1.9257502,-0.39528 -2.9125909,-0.39916 z m 0.059124,1.78203 c 0.1817133,-0.002 0.4387594,0.0299 0.7652733,0.10825 1.3029881,0.31259 2.419466,1.63443 2.426836,2.8729 0.0027,0.49224 -0.1824803,0.82192 -0.3255959,0.57902 -0.03529,-0.0599 -0.111508,-0.33264 -0.1693204,-0.60622 -0.2724641,-1.28933 -0.9201618,-1.9991 -2.1509256,-2.35689 -0.9598381,-0.27903 -1.0914073,-0.5908 -0.5462674,-0.59706 z m -2.7055198,0.11158 c 0.42333,0 1.0723512,0.62852 1.4325625,1.3876 0.2401176,0.50602 0.2471138,0.48314 -0.4224685,1.38538 -0.3431458,0.46238 1.2100835,2.20116 1.9663387,2.20116 0.1772239,0 0.4380987,-0.1279 0.579576,-0.28423 0.360829,-0.39871 0.7424899,-0.35544 1.5155574,0.1721 1.111611,0.75856 1.151005,1.37464 0.1312931,2.06182 -0.5493221,0.37018 -0.4884862,0.3642 -1.1666465,0.11464 -0.9639886,-0.35475 -2.3896065,-1.37259 -3.3009173,-2.35689 -0.9649829,-1.04227 -1.9402477,-2.78131 -1.9402477,-3.45969 0,-0.51093 0.701099,-1.22189 1.2049523,-1.22189 z m 3.0802457,0.80247 c 0.037632,-5.3e-4 0.077742,9e-5 0.1207453,0.002 0.8256155,0.041 1.847259,1.09627 1.847259,1.90805 0,0.49959 -0.2230817,0.65141 -0.4191377,0.28507 H 8.80084 c -0.082086,-0.15338 -0.1490579,-0.37409 -0.1490579,-0.49047 0,-0.38514 -0.6848423,-1.03334 -1.2798965,-1.21162 -0.6445779,-0.19312 -0.6841152,-0.48559 -0.1196344,-0.49325 z m 0.091322,0.83134 c 0.3289799,0.003 0.8705769,0.33309 0.9687359,0.72419 0.1318786,0.52545 -0.1696233,0.77011 -0.38,0.30839 -0.090529,-0.19869 -0.3175571,-0.43091 -0.5043528,-0.51601 -0.1867904,-0.0851 -0.339474,-0.21623 -0.339474,-0.29146 0,-0.15958 0.105555,-0.22623 0.2550909,-0.22511 z"
       id="path1305"
       inkscape:connector-curvature="0"
       sodipodi:nodetypes="sccsscccsssscccccccsccsccccsssccsccssccccccc" />
  </g>
</svg>
